<?xml version="1.0" encoding="UTF-8"?>
<svg id="Layer_2" data-name="Layer 2" xmlns="http://www.w3.org/2000/svg" viewBox="0 0 500 169.35">
  <defs>
    <style>
      .cls-1 {
        fill: #000;
      }

      .cls-1, .cls-2, .cls-3, .cls-4 {
        stroke-width: 0px;
      }

      .cls-2 {
        fill: #0e0e10;
      }

      .cls-3 {
        fill: #fff;
      }

      .cls-4 {
        fill: #be1c17;
      }
    </style>
  </defs>
  <g id="Layer_10" data-name="Layer 10">
    <g>
      <path class="cls-1" d="M84.68,0h415.32v169.35H84.68C37.94,169.35,0,131.41,0,84.68H0C0,37.94,37.94,0,84.68,0Z"/>
      <g>
        <path class="cls-3" d="M221.55,12.47h23.97v144.42h-23.97v-70.77l-1.01,1.01-16.61,16.61v53.15h-23.97V12.47h41.59ZM221.55,36.01h-17.62v42.17l6.35-6.21,11.26-11.41v-24.55Z"/>
        <path class="cls-3" d="M297.8,12.47h24.12v65.86l-24.12,18.05-16.32,12.42h-.43v48.09h-23.97V12.47h40.73ZM297.8,37.16h-16.75v46.07l14.15-10.54,2.6-2.17v-33.36Z"/>
        <path class="cls-3" d="M378.39,12.47h10.4v23.54h-31.34v45.93l.29-.14,9.82-9.82,10.83-10.83v25.42l-.58.58-20.36,20.36v26.14h31.34v23.25h-55.31V12.47h44.91Z"/>
        <path class="cls-3" d="M453.92,84.1l-.29.58,10.11,26.28,4.77,12.56,4.48,11.41,2.02,5.34,6.35,16.61h-25.85l-4.62-12.13-3.75-9.82-4.33-11.41-2.02-5.2-2.02,5.2-4.33,11.41-3.75,9.82-4.62,12.13h-25.71l6.35-16.61,2.02-5.34,4.33-11.41,4.77-12.56,10.11-26.28-.29-.58-.58-1.59-4.04-10.83-6.93-18.05-1.3-3.32-5.34-13.86-3.9-10.25-.72-1.73-4.48-11.99h25.71l3.47,9.39,1.01,2.6,4.62,11.99,5.34,13.86v.14l.29.72.29-.72v-.14l5.34-13.86,4.62-11.99,1.01-2.6,3.61-9.39h25.71l-4.62,11.99-.72,1.73-3.9,10.25-5.34,13.86-1.16,3.32-6.93,18.05-4.19,10.83-.58,1.59Z"/>
      </g>
      <g>
        <g>
          <circle class="cls-4" cx="83.97" cy="84.68" r="81.11"/>
          <path class="cls-1" d="M83.97,167.21C38.46,167.21,1.43,130.19,1.43,84.68S38.46,2.14,83.97,2.14s82.54,37.03,82.54,82.54-37.03,82.54-82.54,82.54ZM83.97,5C40.03,5,4.29,40.74,4.29,84.68s35.74,79.67,79.67,79.67,79.67-35.74,79.67-79.67S127.9,5,83.97,5Z"/>
        </g>
        <g>
          <path class="cls-3" d="M45.66,46.1l-5.24-9.52,8,2.32,3.97-13.7,13.7,3.97,1.23-4.24,1.06-3.73,5.24,9.51-2.19,7.54-18.23,10.04-7.54-2.19ZM54.31,36.54l5.16,1.5,1.48-5.18-5.16-1.5-1.48,5.18Z"/>
          <path class="cls-1" d="M68.71,24.06l.41.75,3.32,6.02-.36,1.23-1.58,5.44-17.44,9.6-5.44-1.58-1.23-.36-2.57-4.67-.75-1.36-.43-.78,1.21.35,3.18.92,2.11.61.61-2.11.92-3.18,1.22-4.21,1.22-4.2,4.2,1.22,4.21,1.22,3.18.92,2.11.61.61-2.11.93-3.19.33-1.15M60.22,39.4l.61-2.12.87-3.07.6-2.1-2.1-.61-3.05-.88-2.12-.61-.61,2.12-.87,3.07-.6,2.1,2.1.61,3.05.88,2.12.61M68.05,18.32l-1.79,6.29-.92,3.18-3.18-.92-4.21-1.22-4.21-1.22-2.1-.61-1.83,6.31-1.22,4.21-.92,3.18-3.18-.92-6.31-1.83,2.24,4.07.75,1.36.75,1.36,3.01,5.46,2.1.61,6.31,1.83,19.03-10.48,1.83-6.31.61-2.1-3.76-6.82-.75-1.36-2.24-4.07h0ZM58.71,36.67l-3.05-.88.87-3.07,3.05.88-.87,3.07h0Z"/>
        </g>
        <g>
          <path class="cls-3" d="M81.65,41.57c.33.04.94.13,1.7.29,0,0,2.46.53,7.83,3.17l21.56-13.23c4.74,1.5,9.48,3,14.22,4.5,1.16,2.27,2.31,4.55,3.47,6.82-1.15,2.47-2.3,4.95-3.45,7.42-.57,2.75-1.14,5.5-1.71,8.25-1,2.08-2,4.16-3,6.25-2.31,3.26-4.63,6.53-6.94,9.79,3.3,2.38,6.6,4.76,9.9,7.13l1.49.71c1.92,1.26,3.85,2.52,5.77,3.78.26-1.78.53-3.55.79-5.33l1.13-3.41c.39,1.31,1.01,3.21,2.01,5.42,1.14,2.54,1.66,3.01,2.06,3.29,2.28,1.54,5.88-.29,6.68-.72.52,1.74,1.58,6.1-.65,9.86-1.71,2.89-4.59,4.09-6.39,4.77-13.84,5.25-29.29,4.82-29.39,6.09-.02.3.81.79,4.59,1.59,1.04,3.58,2.03,7.32,2.92,11.22,2.92,12.74,4.32,24.63,4.82,35.27-3.38,1.84-7.46,3.75-12.22,5.38-3.44,1.18-6.67,2.03-9.58,2.64-22.11-16.45-44.21-32.89-66.32-49.34l11.25-36.74,24.8-21.59c4.22-4.42,8.44-8.85,12.67-13.27Z"/>
          <path class="cls-2" d="M88.32,118.98c.39.43.66.66.84.94,6.27,9.88,12.51,19.78,18.82,29.63.2.31.56.53.99.75.58.3,1.28-.13,1.28-.79v-17.08c.24-.05.19-.04.43-.09.71,2.23,1.42,4.47,2.13,6.7.87,2.75,1.49,4.71,2.12,6.71.85,2.7,2.09,6.6,3.66,11.48-5.27,2.44-13.05,5.39-22.81,6.78-26.69,3.79-47.15-7.06-51.94-9.75-23.26-13.05-32.84-33.28-35.57-39.67,2.86-2.14,5.73-4.28,8.59-6.42-.03-.13-.03-.12-.05-.25-3.27-.23-6.54-.46-9.81-.68-.06-.2-.06-.2-.12-.4l14.19-10.62c-.1-.19-.07-.15-.17-.34-4.33,1.3-10.61,3.61-14.93,4.91-.1-.21-.08-.41-.18-.63,7.41-5.29,16.78-11.34,24.33-16.72-2.17-2.5-4.31-4.95-6.44-7.42-3.05-3.54-6.08-7.1-9.15-10.63-1.51-1.75-2.36-3.79-2.97-6.16,6.52,0,12.87-.05,19.21.05,1.03.02,2.04.74,3.29,1.22-1.13-1.22-2.14-2.31-3.43-3.7,4.64.02,8.91-.19,13.2.15-.17-.39-.44-1.01-.82-1.86,1.93,0,3.71-.15,5.45.03,4.69.49,8.76-.74,12.76-3.27,5.24-3.32,10.79-6.14,16.27-9.05,1.25-.67,2.77-.84,4.17-1.24.16.2.17.22.33.42l-2.98,5.5c2.87-.96,5.78-1.93,8.8-2.94-1.48-.83-2.89-1.61-4.31-2.4.04-.12.03-.09.08-.21,2.92.58,5.83,1.18,8.75,1.72.45.08,1.06-.01,1.44-.26,5.58-3.68,11.16-7.38,16.7-11.13,2.02-1.37,3.99-2.82,5.92-4.33,1.79-1.4,3.74-1.65,5.71-.75.88.4,1.63,1.29,2.18,2.13.68,1.04,1,2.29,1.62,3.38.43.75,1.1,1.36,1.65,2.04.33.41.66.85.74,1.38.36,2.37,1.21,4.64,2.85,6.39,1.65,1.75,1.76,2.63,1.1,3.86-1.8,3.32-1.81,3.37.94,5.91,1.15,1.06,1.93,2.15,1.96,3.81.03,1.77.32,3.53.34,5.42-1.79-2.99-4.39-5.03-7.48-6.76-3.16,6.12-6.35,12.28-9.53,18.45,3.05,2.57,6.02,5.08,9.03,7.55.33.27.88.36,1.33.37,1.49.04,2.98.02,4.6.02,0,.62.15,1.31-.03,1.91-.42,1.38-.12,2.22,1.39,2.46.28.04.55.17.96.3-.45-2.75-.89-5.42-1.33-8.09.16-.05.11-.03.27-.08.04.4.31,2.35,1.99,3.61,1.49,1.12,3.93,1.6,5.74.22,1.39-1.06,2.02-2.93,1.62-4.77,1.28,2.02,1.4,3.29,1.25,4.08-.05.24-.18.78-.05,1.47.16.84.62,1.38.79,1.6,1.01,1.31,1.66,4.97.92,8.3-.21.93-.91,3.89-3.43,6.18-1.4,1.27-2.8,1.64-4.87,2.53-6.45,2.76-12.86,5.63-19.3,8.41-.44.19-.76.39-.94.69-.26.42-.19.89-.17,1,.11.94,1.4,19.57,3.17,45.29-4.75-23.26-8.33-40.18-8.88-42.69-.19-.86-1.13-2.13-2.12-3.55-.19-.28-.76-.36-1.17-.42-3.57-.51-7.15-.98-10.72-1.48-.37-.05-.74-.17-1.17-.51,1.91-.61,3.81-1.22,5.72-1.82,6.91-2.16,13.82-4.32,20.74-6.44.88-.27,2.37-.51,3.29-.53,3.28-.06,6.56,0,9.84-.05.76,0,1.52-.19,2.28-.32.07-.01,1.28-.34,2.21-.86,2.8-1.57,3.64-5.23,3.71-5.55.5-2.34-.06-4.29-.4-5.22-1.43.83-3.56,1.65-6.11,2.63-1.01.39-2.1.61-3.18.73-6.17.7-11.99-.99-17.85-2.59-4.33-1.19-8.52-2.64-12.54-4.63-2.27-1.13-2.85-2.7-2.17-5.12,2.08-7.34,6.75-13.35,10.14-20.02,1.55-3.04,3.26-6,5-8.94.57-.96,1.35-1.85,2.2-2.59,1.81-1.58,3.73-3.05,5.69-4.63-.45-.98-.85-1.99-1.38-2.93-.17-.3-.63-.52-1-.59-1.27-.25-2.63-.24-3.83-.67-1.97-.7-3.94-1.51-5.73-2.58-1.57-.93-2.74-.93-4.27.11-4.02,2.73-8.19,5.24-12.24,7.92-.69.45-1.24,1.09-1.58,1.84-1.37,2.99-2.67,6.02-3.9,9.08-.32.78-.66,1.12-1.52,1.17-5.1.32-10.19.68-15.29,1.1-.61.05-1.45.4-1.73.88-5.48,9.12-10.9,18.28-16.33,27.43-.12.2-.19.42-.41.92,4.95-2.52,9.65-4.92,14.35-7.31.12.13.11.12.23.25-5.64,9.5-11.27,18.99-16.97,28.58,6.78-2.3,13.48-4.58,20.36-6.92,3.97,9.87,7.92,19.68,11.87,29.49.03,0,.06,0,.09-.01,1.52-.28,1.76-5.91,1.72-10.41ZM123.92,60.93l.26-.18c-1.53-3.49-3.05-6.97-4.72-10.78-.61,1.63-1.12,2.9-1.56,4.21-.09.28-.08.76.09.94,1.95,1.96,3.95,3.88,5.93,5.81ZM129.47,42.44c-.82-1.73-1.63-3.46-2.48-5.25-.6.35-1.08.63-1.61.93,1.01,1.89.99,4.51,4.09,4.32ZM77.67,52.28c2.99,2.14,8.09.87,9.83-2.1-3.63-1.35-7.12-.37-9.83,2.1Z"/>
        </g>
      </g>
    </g>
  </g>
</svg>