<?xml version="1.0" encoding="UTF-8"?>
<svg id="Layer_2" data-name="Layer 2" xmlns="http://www.w3.org/2000/svg" viewBox="0 0 500 500">
  <defs>
    <style>
      .cls-1 {
        fill: #000;
      }

      .cls-1, .cls-2, .cls-3, .cls-4 {
        stroke-width: 0px;
      }

      .cls-2 {
        fill: #0e0e10;
      }

      .cls-3 {
        fill: #fff;
      }

      .cls-4 {
        fill: #be1c17;
      }
    </style>
  </defs>
  <g id="Layer_10" data-name="Layer 10">
    <g>
      <g>
        <circle class="cls-4" cx="250" cy="250" r="245.67"/>
        <path class="cls-1" d="M250,500C112.15,500,0,387.85,0,250S112.15,0,250,0s250,112.15,250,250-112.15,250-250,250ZM250,8.67C116.93,8.67,8.67,116.93,8.67,250s108.26,241.33,241.33,241.33,241.33-108.26,241.33-241.33S383.07,8.67,250,8.67Z"/>
      </g>
      <g>
        <path class="cls-3" d="M133.96,133.14l-15.89-28.85,24.24,7.02,12.03-41.51,41.51,12.03,3.72-12.84,3.22-11.29,15.86,28.8-6.62,22.84-55.23,30.41-22.84-6.62ZM160.16,104.2l15.63,4.53,4.47-15.69-15.63-4.53-4.47,15.69Z"/>
        <path class="cls-1" d="M203.77,66.4l1.25,2.27,10.04,18.24-1.08,3.72-4.77,16.47-52.81,29.08-16.47-4.77-3.72-1.08-7.78-14.13-2.26-4.11-1.3-2.36,3.68,1.07,9.64,2.8,6.4,1.85,1.85-6.4,2.79-9.64,3.69-12.74,3.69-12.72,12.72,3.69,12.74,3.69,9.64,2.79,6.4,1.85,1.85-6.4,2.8-9.67,1-3.5M178.07,112.86l1.83-6.43,2.65-9.29,1.82-6.38-6.37-1.85-9.23-2.68-6.42-1.86-1.83,6.43-2.65,9.29-1.82,6.37,6.37,1.85,9.23,2.68,6.42,1.86M201.8,49.01l-5.43,19.06-2.79,9.64-9.64-2.79-12.74-3.69-12.74-3.69-6.37-1.85-5.54,19.12-3.69,12.74-2.79,9.64-9.64-2.8-19.12-5.54,6.79,12.33,2.26,4.11,2.26,4.11,9.11,16.55,6.37,1.85,19.12,5.54,57.64-31.74,5.54-19.12,1.85-6.37-11.38-20.66-2.26-4.11-6.79-12.33h0ZM173.5,104.6l-9.23-2.68,2.65-9.29,9.23,2.68-2.65,9.29h0Z"/>
      </g>
      <g>
        <path class="cls-3" d="M242.97,119.43c.99.12,2.85.38,5.13.87,0,0,7.47,1.6,23.71,9.59l65.3-40.09c14.36,4.55,28.72,9.09,43.08,13.64,3.5,6.89,7,13.78,10.5,20.67-3.48,7.49-6.96,14.98-10.45,22.47-1.73,8.33-3.46,16.66-5.19,24.99-3.03,6.31-6.05,12.61-9.08,18.92-7.01,9.88-14.02,19.77-21.03,29.65,10,7.2,20,14.4,30,21.61l4.5,2.15c5.83,3.81,11.66,7.62,17.48,11.44.8-5.38,1.6-10.76,2.41-16.14,1.15-3.44,2.29-6.89,3.44-10.33,1.17,3.98,3.07,9.72,6.08,16.41,3.46,7.68,5.01,9.13,6.23,9.95,6.91,4.65,17.8-.89,20.23-2.19,1.59,5.26,4.77,18.49-1.97,29.86-5.19,8.76-13.89,12.38-19.36,14.46-41.91,15.9-88.71,14.59-89.02,18.46-.07.92,2.47,2.39,13.89,4.81,3.16,10.85,6.14,22.19,8.84,33.99,8.85,38.6,13.09,74.6,14.61,106.83-10.24,5.58-22.6,11.36-37.01,16.31-10.42,3.58-20.19,6.14-29.03,7.99-66.96-49.81-133.93-99.62-200.89-149.44l34.09-111.3,75.13-65.39c12.79-13.4,25.58-26.8,38.37-40.2Z"/>
        <path class="cls-2" d="M263.19,353.9c1.17,1.3,1.99,1.99,2.54,2.85,18.98,29.93,37.89,59.91,57.02,89.75.61.95,1.68,1.61,2.99,2.27,1.77.9,3.88-.39,3.88-2.38v-51.73c.72-.14.57-.11,1.29-.26,2.15,6.76,4.3,13.53,6.44,20.3,2.63,8.33,4.51,14.28,6.41,20.32,2.59,8.19,6.33,19.98,11.08,34.78-15.96,7.4-39.52,16.32-69.09,20.52-80.83,11.48-142.81-21.38-157.33-29.53-70.47-39.54-99.48-100.79-107.74-120.16,8.68-6.49,17.35-12.97,26.03-19.46-.09-.39-.08-.36-.17-.75-9.91-.69-19.81-1.38-29.72-2.07-.18-.6-.18-.61-.36-1.21l42.97-32.15c-.29-.58-.22-.44-.51-1.02-13.1,3.93-32.12,10.94-45.23,14.88-.32-.64-.24-1.26-.55-1.9,22.45-16.02,50.83-34.34,73.69-50.65-6.57-7.56-13.06-14.99-19.51-22.46-9.25-10.72-18.43-21.5-27.7-32.21-4.58-5.29-7.14-11.47-8.99-18.66,19.76,0,38.98-.16,58.2.16,3.11.05,6.18,2.23,9.96,3.69-3.44-3.7-6.49-7-10.4-11.21,14.07.05,27-.56,39.98.44-.52-1.18-1.35-3.06-2.48-5.63,5.86,0,11.23-.47,16.49.09,14.2,1.5,26.53-2.23,38.66-9.91,15.86-10.05,32.68-18.6,49.28-27.42,3.8-2.02,8.4-2.55,12.63-3.74.49.61.52.66,1.01,1.26l-9.03,16.65c8.7-2.91,17.51-5.86,26.66-8.92-4.49-2.5-8.77-4.89-13.04-7.27.14-.37.1-.28.24-.65,8.83,1.76,17.65,3.58,26.52,5.2,1.38.25,3.21-.03,4.36-.79,16.91-11.15,33.79-22.36,50.57-33.71,6.13-4.15,12.1-8.54,17.93-13.1,5.42-4.24,11.33-5,17.3-2.27,2.65,1.22,4.94,3.9,6.6,6.44,2.05,3.14,3.04,6.95,4.91,10.23,1.29,2.27,3.32,4.11,4.99,6.18,1,1.24,2.01,2.57,2.25,4.17,1.1,7.18,3.67,14.06,8.65,19.36,4.99,5.31,5.34,7.97,3.32,11.7-5.44,10.04-5.48,10.21,2.86,17.89,3.49,3.22,5.84,6.51,5.92,11.53.09,5.36.98,10.7,1.02,16.42-5.42-9.06-13.3-15.24-22.66-20.48-9.57,18.53-19.22,37.21-28.88,55.9,9.25,7.77,18.25,15.4,27.36,22.88,1,.82,2.67,1.08,4.04,1.12,4.51.14,9.03.05,13.93.05,0,1.87.46,3.98-.09,5.79-1.27,4.19-.35,6.73,4.22,7.45.85.13,1.65.52,2.9.92-1.37-8.34-2.7-16.42-4.04-24.49.47-.15.33-.1.8-.25.14,1.2.93,7.11,6.03,10.95,4.5,3.39,11.91,4.84,17.39.66,4.22-3.22,6.12-8.89,4.92-14.44,3.88,6.13,4.23,9.96,3.77,12.36-.14.73-.55,2.37-.15,4.47.49,2.54,1.89,4.18,2.4,4.84,3.07,3.96,5.03,15.06,2.79,25.13-.63,2.81-2.75,11.79-10.38,18.72-4.25,3.86-8.47,4.98-14.76,7.67-19.54,8.36-38.94,17.04-58.45,25.47-1.34.58-2.29,1.18-2.84,2.08-.78,1.28-.57,2.7-.53,3.04.32,2.85,4.24,59.28,9.61,137.19-14.4-70.47-25.23-121.7-26.91-129.3-.57-2.6-3.42-6.44-6.41-10.76-.58-.85-2.29-1.1-3.53-1.28-10.82-1.54-21.66-2.98-32.48-4.49-1.14-.16-2.24-.53-3.53-1.55,5.77-1.84,11.53-3.71,17.32-5.52,20.93-6.53,41.85-13.1,62.82-19.52,2.68-.82,7.16-1.56,9.97-1.61,9.93-.17,19.86-.02,29.79-.14,2.3-.03,4.61-.56,6.9-.97.21-.04,3.86-1.02,6.71-2.61,8.5-4.76,11.03-15.84,11.23-16.8,1.52-7.1-.18-13-1.22-15.82-4.32,2.51-10.77,5-18.51,7.96-3.05,1.17-6.37,1.86-9.63,2.22-18.7,2.11-36.31-3-54.07-7.86-13.12-3.59-25.82-7.99-37.99-14.02-6.89-3.41-8.64-8.18-6.56-15.5,6.29-22.24,20.45-40.44,30.71-60.63,4.69-9.22,9.88-18.19,15.14-27.09,1.72-2.92,4.1-5.6,6.66-7.84,5.49-4.79,11.29-9.23,17.22-14.02-1.36-2.96-2.59-6.02-4.18-8.88-.5-.9-1.92-1.58-3.03-1.8-3.86-.77-7.96-.73-11.6-2.03-5.97-2.13-11.93-4.59-17.37-7.81-4.76-2.82-8.3-2.81-12.94.34-12.18,8.26-24.79,15.88-37.09,23.98-2.09,1.38-3.75,3.31-4.79,5.59-4.16,9.06-8.07,18.25-11.8,27.5-.96,2.37-1.99,3.38-4.62,3.54-15.44.96-30.88,2.05-46.3,3.33-1.85.15-4.38,1.21-5.25,2.66-16.61,27.62-33.03,55.36-49.47,83.07-.35.6-.57,1.27-1.23,2.79,14.99-7.64,29.23-14.89,43.46-22.15.37.39.34.36.71.75-17.07,28.77-34.15,57.53-51.4,86.58,20.53-6.98,40.83-13.88,61.67-20.96,12.03,29.89,23.99,59.61,35.96,89.32.09,0,.18-.02.26-.03,4.61-.86,5.33-17.9,5.21-31.52ZM371.01,178.09l.79-.55c-4.62-10.56-9.25-21.12-14.3-32.64-1.85,4.92-3.39,8.8-4.73,12.74-.29.84-.26,2.31.28,2.84,5.91,5.94,11.96,11.76,17.96,17.61ZM387.82,122.08c-2.47-5.23-4.95-10.48-7.51-15.92-1.82,1.06-3.27,1.9-4.86,2.83,3.05,5.71,2.99,13.65,12.38,13.09ZM230.93,151.87c9.06,6.47,24.52,2.62,29.76-6.36-11-4.1-21.57-1.11-29.76,6.36Z"/>
      </g>
    </g>
  </g>
</svg>